<svg xmlns="http://www.w3.org/2000/svg" width="760" height="56">
  <rect width="760" height="56" rx="6" ry="6" fill="#0d0d0d"/>
  <rect width="760" height="24" rx="6" ry="6" fill="#0a0a0a"/>
  <rect width="760" height="4" y="20" fill="#0a0a0a"/>
  <circle cx="16" cy="12" r="5" fill="#ff5f57"/>
  <circle cx="36" cy="12" r="5" fill="#febc2e"/>
  <circle cx="56" cy="12" r="5" fill="#28c840"/>
  <text x="380" y="16" font-family="'SF Pro Display', 'Helvetica Neue', Arial, sans-serif" font-size="12" fill="#6c7086" text-anchor="middle">Powerline Neon</text>
  <rect x="0" y="25" width="151" height="31" fill="#c71585"/>
  <text x="6" y="43" font-family="'Cascadia Code','Fira Code','JetBrains Mono',Menlo,monospace" font-size="13" fill="#0d0d0d" font-weight="bold" xml:space="preserve"> ✦ Opus 4.7 </text>
  <rect x="151" y="25" width="127" height="31" fill="#00e5ff"/>
  <text x="157" y="43" font-family="'Cascadia Code','Fira Code','JetBrains Mono',Menlo,monospace" font-size="13" fill="#0d0d0d" font-weight="bold" xml:space="preserve"> ████ 42%  </text>
  <rect x="278" y="25" width="97" height="31" fill="#00e676"/>
  <text x="284" y="43" font-family="'Cascadia Code','Fira Code','JetBrains Mono',Menlo,monospace" font-size="13" fill="#0d0d0d" font-weight="bold" xml:space="preserve"> $0.324 </text>
  <rect x="375" y="25" width="176" height="31" fill="#5c1aff"/>
  <text x="381" y="43" font-family="'Cascadia Code','Fira Code','JetBrains Mono',Menlo,monospace" font-size="13" fill="#ffffff" font-weight="bold" xml:space="preserve">  feature/auth-flow  </text>
  <rect x="551" y="25" width="176" height="31" fill="#2a2a2a"/>
  <text x="557" y="43" font-family="'Cascadia Code','Fira Code','JetBrains Mono',Menlo,monospace" font-size="13" fill="#888888" font-weight="bold" xml:space="preserve"> 8m12s +186 -43  </text>
  <text x="150" y="44" font-family="monospace" font-size="20" fill="#c71585">▶</text>
  <text x="277" y="44" font-family="monospace" font-size="20" fill="#00e5ff">▶</text>
  <text x="374" y="44" font-family="monospace" font-size="20" fill="#00e676">▶</text>
  <text x="550" y="44" font-family="monospace" font-size="20" fill="#5c1aff">▶</text>
</svg>
