<svg xmlns="http://www.w3.org/2000/svg" width="760" height="56">
  <rect width="760" height="56" rx="6" ry="6" fill="#282828"/>
  <rect width="760" height="24" rx="6" ry="6" fill="#1d2021"/>
  <rect width="760" height="4" y="20" fill="#1d2021"/>
  <circle cx="16" cy="12" r="5" fill="#ff5f57"/>
  <circle cx="36" cy="12" r="5" fill="#febc2e"/>
  <circle cx="56" cy="12" r="5" fill="#28c840"/>
  <rect x="14" y="29" width="130" height="18" rx="9" ry="9" fill="#689d6a"/>
  <text x="22" y="42" font-family="'Cascadia Code','Fira Code','JetBrains Mono',Menlo,monospace" font-size="13" fill="#282828" font-weight="bold" xml:space="preserve">◈ Sonnet 4.5</text>
  <rect x="155" y="29" width="175" height="18" rx="9" ry="9" fill="#d79921"/>
  <text x="163" y="42" font-family="'Cascadia Code','Fira Code','JetBrains Mono',Menlo,monospace" font-size="13" fill="#282828" font-weight="bold" xml:space="preserve"> feature/auth-flow</text>
  <rect x="345" y="29" width="155" height="18" rx="9" ry="9" fill="#98971a"/>
  <text x="353" y="42" font-family="'Cascadia Code','Fira Code','JetBrains Mono',Menlo,monospace" font-size="13" fill="#282828" font-weight="bold" xml:space="preserve">▓▓▓▓░░░░ 42%</text>
  <rect x="510" y="29" width="110" height="18" rx="9" ry="9" fill="#b16286"/>
  <text x="518" y="42" font-family="'Cascadia Code','Fira Code','JetBrains Mono',Menlo,monospace" font-size="13" fill="#ebdbb2" font-weight="bold" xml:space="preserve">$0.324</text>
  <rect x="615" y="29" width="130" height="18" rx="9" ry="9" fill="#504945"/>
  <text x="623" y="42" font-family="'Cascadia Code','Fira Code','JetBrains Mono',Menlo,monospace" font-size="13" fill="#ebdbb2" font-weight="bold" xml:space="preserve">8m12s  +186/-43</text>
</svg>
